#N canvas 755 140 625 525 10;
#X text 25 29 pdpp/veltab/store <veltab_id>;
#X obj 225 27 table \$1;
#N canvas 325 165 400 153 backward_compatibility 0;
#X obj 37 66 route read write linear const1;
#X obj 37 44 r \$1/ctl;
#X obj 51 95 s \$1/read;
#X obj 87 115 s \$1/write;
#X obj 120 93 s \$1/linear;
#X obj 157 115 s \$1/const;
#X text 135 39 deprecated;
#X connect 0 0 2 0;
#X connect 0 1 3 0;
#X connect 0 2 4 0;
#X connect 0 3 5 0;
#X connect 1 0 0 0;
#X restore 27 101 pd backward_compatibility;
#X msg 37 369 read \$1;
#X msg 277 369 write \$1;
#X obj 33 255 r \$1/read;
#X obj 254 238 r \$1/write;
#X msg 403 75 vis \$1;
#X obj 403 56 r \$1/vis;
#X obj 36 398 s \$1;
#N canvas 312 166 491 238 init 0;
#X obj 14 13 loadbang;
#X msg 87 116 resize 128 \, bounds 0 127 127 0;
#X text 125 22 INIT tab and and label;
#X msg 47 140 xticks 60 1 12 \, xlabel -5 10 20 30 40 50 60 70 80 90 100 110 120 127 \, yticks 60 1 12 \, ylabel -3 10 20 30 40 50 60 70 80 90 100 110 120 127;
#X obj 15 35 t b b;
#X obj 48 63 t b b;
#X obj 16 206 s \$1/linear;
#X obj 95 204 s \$1;
#X connect 0 0 4 0;
#X connect 1 0 7 0;
#X connect 3 0 7 0;
#X connect 4 0 6 0;
#X connect 4 1 5 0;
#X connect 5 0 3 0;
#X connect 5 1 1 0;
#X restore 286 27 pd init;
#X text 25 54 Veltab is a mapping of input velocity to out velocity over a table. It can be used anywhere \, but only one uniq store id for one or many map \, see: pdpp/veltab/map <veltab_id>;
#X obj 35 343 symbol veltab.txt;
#X obj 274 340 symbol veltab.txt;
#X obj 35 279 route bang symbol filename;
#X obj 256 259 route bang symbol filename;
#X obj 327 147 r \$1/save;
#X obj 326 212 savepanel;
#X obj 103 231 openpanel;
#X obj 403 94 s pd-\$1;
#X obj 101 154 r \$1/load;
#X obj 102 176 route bang symbol;
#X msg 103 204 symbol data/;
#X obj 326 169 route bang symbol;
#X msg 327 192 symbol data/;
#X obj 269 432 spigot 1;
#X obj 337 401 r \$1/v_ctl;
#X obj 270 453 print \$1;
#X text 331 451 for debug;
#X obj 386 342 r \$1/filename;
#X obj 149 333 r \$1/filename;
#X obj 146 311 s \$1/filename;
#X obj 380 316 s \$1/filename;
#X obj 325 237 s \$1/write;
#X obj 102 255 s \$1/read;
#N canvas 254 296 450 300 helper 0;
#X obj 133 131 for++ 0 127 1;
#X obj 133 159 t f f;
#X obj 133 182 * 1;
#X msg 133 85 1;
#X obj 133 108 t b f;
#X obj 133 61 route bang float;
#X msg 39 109 const \$1;
#X obj 39 43 r \$1/const;
#X obj 129 39 r \$1/linear;
#X obj 39 64 min 128;
#X obj 39 85 max 0;
#X obj 133 206 tabwrite \$1;
#X obj 39 132 s \$1;
#X connect 0 0 1 0;
#X connect 1 0 2 0;
#X connect 1 1 11 1;
#X connect 2 0 11 0;
#X connect 3 0 4 0;
#X connect 4 0 0 0;
#X connect 4 1 2 1;
#X connect 5 0 3 0;
#X connect 5 1 4 0;
#X connect 6 0 12 0;
#X connect 7 0 9 0;
#X connect 8 0 5 0;
#X connect 9 0 10 0;
#X connect 10 0 6 0;
#X restore 46 449 pd helper;
#X obj 55 302 t b s;
#X obj 306 286 t b s;
#X connect 3 0 9 0;
#X connect 3 0 25 0;
#X connect 4 0 9 0;
#X connect 4 0 25 0;
#X connect 5 0 14 0;
#X connect 6 0 15 0;
#X connect 7 0 19 0;
#X connect 8 0 7 0;
#X connect 12 0 3 0;
#X connect 13 0 4 0;
#X connect 14 0 12 0;
#X connect 14 1 36 0;
#X connect 14 2 31 0;
#X connect 15 0 13 0;
#X connect 15 1 37 0;
#X connect 15 2 32 0;
#X connect 16 0 23 0;
#X connect 17 0 33 0;
#X connect 18 0 34 0;
#X connect 20 0 21 0;
#X connect 21 0 22 0;
#X connect 21 1 18 0;
#X connect 22 0 18 0;
#X connect 23 0 24 0;
#X connect 24 0 17 0;
#X connect 25 0 27 0;
#X connect 26 0 25 1;
#X connect 29 0 13 1;
#X connect 30 0 12 1;
#X connect 36 0 12 0;
#X connect 36 1 31 0;
#X connect 37 0 13 0;
#X connect 37 1 32 0;
