#N canvas 214 110 1346 423 10;
#X text 50 88 max;
#X obj 32 134 / 127;
#X obj 128 140 / 127;
#X text 129 85 min;
#X obj 220 139 sel 127;
#X obj 295 151 sel 127;
#X text 239 80 Vnull;
#X text 293 80 V10;
#X obj 406 150 sel 127;
#X text 369 79 V127;
#X obj 127 168 * 200;
#X text 513 77 Speed;
#X obj 34 166 * 300;
#X obj 33 201 + 400;
#X obj 127 191 + 0;
#X obj 516 129 / 127;
#X obj 516 179 + 3;
#X obj 516 155 * 997;
#X obj 800 136 sel 127;
#X obj 901 146 sel 127;
#X text 606 77 -1;
#X text 713 80 +1;
#X text 809 80 -12;
#X text 900 78 +12;
#X obj 606 132 sel 127;
#X obj 712 134 sel 127;
#X text 1125 75 arp;
#X obj 91 18 pctlin \$1;
#X floatatom 91 44 5 0 0 0 - - - 0;
#X obj 1128 140 sel 127;
#X obj 1046 139 sel 127;
#X text 1043 76 on/off;
#X obj 32 109 pctlin \$1 52 1;
#X obj 127 107 pctlin \$1 53 1;
#X obj 220 105 pctlin \$1 11 1;
#X obj 315 106 pctlin \$1 12 1;
#X obj 406 105 pctlin \$1 13 1;
#X obj 516 99 pctlin \$1 59 1;
#X obj 606 101 pctlin \$1 16 1;
#X obj 712 105 pctlin \$1 17 1;
#X obj 800 105 pctlin \$1 18 1;
#X obj 901 100 pctlin \$1 19 1;
#X obj 1046 100 pctlin \$1 15 1;
#X obj 1150 95 pctlin \$1 79 1;
#X msg 220 216 0;
#X msg 295 218 10;
#X msg 370 222 127;
#X obj 34 300 s /piano/\$1/minmax/edit/max;
#X obj 127 277 s /piano/\$1/minmax/edit/min;
#X obj 220 249 s /piano/\$1/minmax/edit/v;
#X obj 516 296 s /piano/\$1/minmax/edit/speed;
#X obj 606 264 s /piano/\$1/minmax/edit/dec;
#X obj 712 237 s /piano/\$1/minmax/edit/inc;
#X obj 800 268 s /piano/\$1/minmax/edit/dec12;
#X obj 901 235 s /piano/\$1/minmax/edit/inc12;
#X obj 1046 284 s /piano/\$1/minmax/edit/on;
#X obj 1128 213 s /piano/\$1/minmax/edit/arp;
#X text 160 39 (for nanocontrol);
#X text 297 42 Template: copy and load manually;
#X obj 610 29 tgl 18 0 /piano/\$1/controller/on /piano/\$1/controller/on ON 4 9 0 10 #c6ffc7 #000000 #000000 0 1;
#X connect 1 0 12 0;
#X connect 2 0 10 0;
#X connect 4 0 44 0;
#X connect 5 0 45 0;
#X connect 8 0 46 0;
#X connect 10 0 14 0;
#X connect 12 0 13 0;
#X connect 13 0 47 0;
#X connect 14 0 48 0;
#X connect 15 0 17 0;
#X connect 16 0 50 0;
#X connect 17 0 16 0;
#X connect 18 0 53 0;
#X connect 19 0 54 0;
#X connect 24 0 51 0;
#X connect 25 0 52 0;
#X connect 27 0 28 0;
#X connect 29 0 56 0;
#X connect 30 0 55 0;
#X connect 32 0 1 0;
#X connect 33 0 2 0;
#X connect 34 0 4 0;
#X connect 35 0 5 0;
#X connect 36 0 8 0;
#X connect 37 0 15 0;
#X connect 38 0 24 0;
#X connect 39 0 25 0;
#X connect 40 0 18 0;
#X connect 41 0 19 0;
#X connect 42 0 30 0;
#X connect 43 0 29 0;
#X connect 44 0 49 0;
#X connect 45 0 49 0;
#X connect 46 0 49 0;
