#N canvas 912 187 400 234 10;
#X obj 11 11 cnv 15 198 198 empty empty PIANO_\$1_CTL 3 10 0 14 #fcfcc4 #404040 0;
#X symbolatom 22 85 15 0 0 2 piano_ip - /piano/\$1/ip 0;
#X obj 114 87 nbx 5 14 -1e+37 1e+37 0 0 /piano/\$1/portnr /piano/\$1/portnr portnr 0 -8 0 10 #fcfcfc #000000 #000000 0 256;
#X obj 19 33 tgl 30 0 /piano/\$1/on /piano/\$1/on ON 3 15 0 22 #00fc04 #000000 #000000 0 1;
#X obj 16 180 tgl 15 0 /piano/\$1/minmaxs/edit/gui /piano/\$1/minmaxs/edit/gui minmax_edit 17 7 0 10 #fc8000 #000000 #000000 0 1;
#X obj 116 181 tgl 15 0 /piano/\$1/notemap/edit/gui /piano/\$1/notemap/edit/gui notemap_edit 17 7 0 10 #fc8000 #000000 #000000 0 1;
#X obj 258 25 r /piano/\$1/ip;
#X msg 258 45 set \$1;
#X obj 174 85 tgl 15 0 /pde/\$1/v /pde/\$1/v v_pde 0 -7 0 10 #f8fc00 #000000 #000000 0 1;
#X obj 136 43 tgl 15 0 empty /pde/\$1/send_status connected 17 7 0 10 #fcfcc4 #000000 #000000 0 1;
#X obj 223 191 pdpp/minmax/edit_ctl \$1;
#X obj 223 166 pdpp/notemap/edit_ctl \$1;
#X text 22 160 ------ Calibration ---------;
#X obj 55 33 tgl 15 0 /piano/\$1/v_in /piano/\$1/v_in v_note_in 17 7 0 10 #f8fc00 #000000 #000000 0 1;
#X obj 55 49 tgl 15 0 /piano/\$1/v /piano/\$1/v v_note 17 7 0 10 #f8fc00 #000000 #000000 0 1;
#X obj 10 108 ../veltab/ctl /piano/\$1/veltab;
#X obj 161 25 nbx 3 14 -1e+37 1e+37 0 0 /piano/\$1/rheanr /piano/\$1/rheanr rhea 0 -8 0 10 #fcfcc4 #000000 #000000 0 256;
#N canvas 500 560 308 169 extras 0;
#N canvas 1015 586 337 190 \$0-extras 0;
#X obj 31 66 vradio 18 1 0 2 /piano/\$1/overwrite /piano/\$1/overwrite overwrite 0 -9 0 10 #fcfcfc #000000 #000000 0;
#X text 49 65 off;
#X text 50 84 standard;
#X text 28 105 ...;
#X obj 192 64 vradio 18 1 0 2 /piano/\$1/pedal /piano/\$1/pedal pedal 0 -9 0 10 #fcfcfc #000000 #000000 0;
#X text 210 63 off;
#X text 189 103 ...;
#X text 211 82 simualtion;
#X text 27 11 Rhea Extra controls;
#X restore 30 35 pd \$0-extras;
#X obj 125 69 pack 0 \$0;
#X obj 38 80 tgl 15 0 /piano/\$1/extras/gui /piano/\$1/extras/gui X 4 7 0 12 #f8fc00 #000000 #000000 0 1;
#X obj 125 37 r /piano/\$1/extras/gui;
#X msg 123 91 \; pd-\$2-extras vis \$1;
#X connect 1 0 4 0;
#X connect 3 0 1 0;
#X restore 225 125 pd extras;
#X obj 135 12 tgl 15 0 /piano/\$1/extras/gui /piano/\$1/extras/gui X 4 7 0 12 #c6feff #000000 #000000 0 1;
#X connect 6 0 7 0;
#X connect 7 0 1 0;
#X coords 0 -1 1 1 200 200 1 10 10;
