#N canvas 1187 465 541 281 10;
#X obj 22 54 inlet;
#X obj 22 117 pack \$1 \$2;
#X text 169 78 bang for reintialize;
#X text 23 237 (c) GPL v3 - winfried ritsch;
#X obj 22 77 route list float bang;
#X msg 22 151 \; /piano/\$1/notemap/rheanr \$2 \; /piano/\$1/hold/rheanr \$2 \; /piano/\$1/minmaxs/rheanr \$2, f 71;
#X text 170 59 <rhea nr> reinitialze rhea;
#X text 21 24 pdpp/rhea/init [piano nr] [rhea id];
#X text 171 43 <piano nr> <rhea id> for maping;
#X text 149 123 <rhea id> = rheanr is the number written on a Rhea Automat;
#X connect 0 0 4 0;
#X connect 1 0 5 0;
#X connect 4 0 1 0;
#X connect 4 1 1 0;
#X connect 4 2 1 0;
