#N canvas 1835 0 609 361 10;
#X obj 22 103 inlet;
#X text 27 40 Needed objects to play one piano with nr <piano_nr>;
#X text 121 241 map notes to finger;
#X text 429 206 piano hold command;
#X obj 22 128 spigot 1;
#X obj 67 103 r /piano/\$1/on;
#X obj 47 215 r /piano/\$1/finger;
#X text 168 215 for direct control;
#X obj 97 131 ../minmax/edit \$1;
#X obj 22 158 ../minmax/map \$1;
#X obj 22 188 ../notemap/map \$1;
#X obj 22 242 ../rhea/finger;
#X obj 149 189 ../notemap/store \$1;
#X obj 482 180 ../hold/store \$1;
#X obj 150 157 ../minmax/store \$1;
#X obj 22 280 outlet rhea;
#X obj 350 203 ../hold/cmd;
#X text 29 302 via UDP to rhea(s);
#X obj 350 178 r /piano/\$1/hold/val;
#X text 24 8 pdpp/piano/stack <piano_nr=send1 nr>;
#X text 25 58 Piano commands have to be compatible to rhea firmware !!!! (now V1.1);
#X text 216 131 Map vel 0..127 to real: vels 0...16383;
#X connect 0 0 4 0;
#X connect 4 0 9 0;
#X connect 5 0 4 1;
#X connect 6 0 11 0;
#X connect 8 0 9 0;
#X connect 9 0 10 0;
#X connect 10 0 11 0;
#X connect 11 0 15 0;
#X connect 16 0 15 0;
#X connect 18 0 16 0;
